<?xml version="1.0" encoding="UTF-8" standalone="no"?>
<svg
   xmlns:dc="http://purl.org/dc/elements/1.1/"
   xmlns:cc="http://creativecommons.org/ns#"
   xmlns:rdf="http://www.w3.org/1999/02/22-rdf-syntax-ns#"
   xmlns:svg="http://www.w3.org/2000/svg"
   xmlns="http://www.w3.org/2000/svg"
   xmlns:sodipodi="http://sodipodi.sourceforge.net/DTD/sodipodi-0.dtd"
   xmlns:inkscape="http://www.inkscape.org/namespaces/inkscape"
   width="130pt"
   height="92pt"
   viewBox="0 0 130 92"
   version="1.1"
   id="svg2"
   inkscape:version="0.47 r22583"
   sodipodi:docname="jakarta-logo.svg"
   inkscape:export-xdpi="43.200001"
   inkscape:export-ydpi="43.200001">
  <metadata
     id="metadata35">
    <rdf:RDF>
      <cc:Work
         rdf:about="">
        <dc:format>image/svg+xml</dc:format>
        <dc:type
           rdf:resource="http://purl.org/dc/dcmitype/StillImage" />
        <dc:title></dc:title>
      </cc:Work>
    </rdf:RDF>
  </metadata>
  <defs
     id="defs33">
    <inkscape:perspective
       sodipodi:type="inkscape:persp3d"
       inkscape:vp_x="0 : 57.5 : 1"
       inkscape:vp_y="0 : 1000 : 0"
       inkscape:vp_z="162.5 : 57.5 : 1"
       inkscape:persp3d-origin="81.25 : 38.333333 : 1"
       id="perspective37" />
    <inkscape:perspective
       id="perspective3690"
       inkscape:persp3d-origin="0.5 : 0.33333333 : 1"
       inkscape:vp_z="1 : 0.5 : 1"
       inkscape:vp_y="0 : 1000 : 0"
       inkscape:vp_x="0 : 0.5 : 1"
       sodipodi:type="inkscape:persp3d" />
    <inkscape:perspective
       id="perspective3712"
       inkscape:persp3d-origin="0.5 : 0.33333333 : 1"
       inkscape:vp_z="1 : 0.5 : 1"
       inkscape:vp_y="0 : 1000 : 0"
       inkscape:vp_x="0 : 0.5 : 1"
       sodipodi:type="inkscape:persp3d" />
    <inkscape:perspective
       id="perspective3734"
       inkscape:persp3d-origin="0.5 : 0.33333333 : 1"
       inkscape:vp_z="1 : 0.5 : 1"
       inkscape:vp_y="0 : 1000 : 0"
       inkscape:vp_x="0 : 0.5 : 1"
       sodipodi:type="inkscape:persp3d" />
    <inkscape:perspective
       id="perspective3767"
       inkscape:persp3d-origin="0.5 : 0.33333333 : 1"
       inkscape:vp_z="1 : 0.5 : 1"
       inkscape:vp_y="0 : 1000 : 0"
       inkscape:vp_x="0 : 0.5 : 1"
       sodipodi:type="inkscape:persp3d" />
    <inkscape:perspective
       id="perspective3789"
       inkscape:persp3d-origin="0.5 : 0.33333333 : 1"
       inkscape:vp_z="1 : 0.5 : 1"
       inkscape:vp_y="0 : 1000 : 0"
       inkscape:vp_x="0 : 0.5 : 1"
       sodipodi:type="inkscape:persp3d" />
    <inkscape:perspective
       id="perspective3811"
       inkscape:persp3d-origin="0.5 : 0.33333333 : 1"
       inkscape:vp_z="1 : 0.5 : 1"
       inkscape:vp_y="0 : 1000 : 0"
       inkscape:vp_x="0 : 0.5 : 1"
       sodipodi:type="inkscape:persp3d" />
  </defs>
  <sodipodi:namedview
     pagecolor="#ffffff"
     bordercolor="#666666"
     borderopacity="1"
     objecttolerance="10"
     gridtolerance="10"
     guidetolerance="10"
     inkscape:pageopacity="0"
     inkscape:pageshadow="2"
     inkscape:window-width="1680"
     inkscape:window-height="988"
     id="namedview31"
     showgrid="false"
     inkscape:zoom="6.4434783"
     inkscape:cx="81.25"
     inkscape:cy="57.5"
     inkscape:window-x="-8"
     inkscape:window-y="-8"
     inkscape:window-maximized="1"
     inkscape:current-layer="layer2" />
  <g
     inkscape:groupmode="layer"
     id="layer1"
     inkscape:label="Base"
     sodipodi:insensitive="true">
    <g
       id="#000000ff">
      <path
         d="m 68.2,0 1.08,0 c 5.05,2.67 9.83,6.22 12.35,11.51 7.71,-1.24 15.59,-1.3 23.33,-0.26 2.8,-5.12 7.57,-8.69 12.69,-11.25 l 0.7,0 c 3.13,13.44 2.99,28.03 -2.8,40.76 1.83,0.4 3.67,0.81 5.47,1.36 -2.78,0.77 -5.67,1.06 -8.37,2.1 2.45,0.65 4.96,0.92 7.47,1.2 -0.07,0.35 -0.2,1.06 -0.27,1.42 -2.49,0.03 -4.97,0.04 -7.45,0.04 -3.86,5.93 -8.75,11.14 -14.39,15.41 6.41,6.49 12.3,13.51 18.89,19.81 4.9,0.84 10.47,1.79 13.1,6.62 l 0,3.28 -14,0 C 93.78,80.63 70.52,69.77 45.32,67.55 c 0.54,3.43 1.69,6.73 3.53,9.69 2.38,0.02 4.9,-0.34 7.15,0.64 1.29,1.15 1.78,2.88 2.56,4.36 -3.78,0.16 -7.6,0.47 -11.37,0 C 40.51,78.26 34.73,72.95 28.96,67.77 23.92,69.58 18.97,72.52 16.4,77.39 14.08,81.04 14.03,85.46 13.88,89.63 9.25,89.57 4.63,89.59 0,89.6 L 0,87.54 C 5.36,76.89 12.85,67.44 20.91,58.71 15.88,51.74 11.47,43.2 13.26,34.35 c 1.37,-6.59 6.47,-12.54 13.22,-13.91 4.55,-1.4 9.53,0.93 13.76,-1.73 5.94,-0.7 11.22,3.73 15.09,7.82 -5.14,1.7 -10.92,2.42 -16.05,0.31 -1.81,-0.67 -2.12,-2.82 -3,-4.31 -3.71,-0.17 -7.59,-0.64 -11.11,0.81 -5.96,2.22 -9.94,8.46 -9.88,14.76 -0.25,6.92 3.43,13.1 7.13,18.66 C 35.17,44.8 50.77,35.73 67.69,31.2 65.28,20.98 64.76,10.06 68.2,0 m 48.92,3.9 c -1.33,4.04 -3.19,7.96 -6.26,10.98 -4.61,-0.96 -9.26,-1.65 -13.96,-1.89 -0.85,2.9 -1.68,5.8 -2.61,8.67 -1.31,-2.84 -2.57,-5.69 -3.86,-8.53 -4.53,0.16 -8.95,1.18 -13.41,1.8 -4.87,-1.3 -6.16,-6.85 -7.9,-10.9 -1.17,7.19 -1,14.53 -0.15,21.75 2.14,1.17 4.31,2.28 6.47,3.42 -1.99,0.22 -3.98,0.42 -5.97,0.67 0.98,1.54 2.07,3 3.28,4.36 -1.16,2.4 0.42,4.74 1.27,6.94 2.29,0.11 4.59,0.24 6.83,0.75 -2.09,0.8 -4.27,1.33 -6.4,2.01 1.95,0.71 3.96,1.27 5.96,1.84 -0.9,0.62 -1.81,1.22 -2.7,1.84 4.43,5.72 9.82,10.79 16.34,14.04 6.04,-3.67 11.13,-8.59 15.42,-14.17 -0.93,-0.39 -2.8,-1.16 -3.74,-1.54 2.33,-0.68 4.72,-1.19 6.95,-2.17 -2.44,-0.6 -4.94,-0.94 -7.3,-1.81 2.45,-0.69 5.01,-0.69 7.54,-0.71 0.55,-1.21 1.1,-2.41 1.66,-3.62 -0.6,-0.28 -1.81,-0.85 -2.41,-1.13 2.03,-1.13 3.8,-2.62 4.68,-4.84 -1.41,-0.38 -2.82,-0.73 -4.23,-1.06 1.38,-0.65 2.8,-1.23 4.14,-1.98 1.04,-2.73 0.91,-5.7 0.98,-8.57 -0.08,-5.39 0.1,-10.8 -0.62,-16.15 m -59.7,33.13 c 1.17,3.58 2.37,7.15 3.61,10.71 -3.59,-2.53 -7.27,-4.95 -10.94,-7.38 -1.06,0.55 -2.12,1.1 -3.18,1.64 1.22,2.04 2.43,4.1 3.57,6.18 -2.57,-1.13 -5.08,-2.41 -7.55,-3.75 -1.67,0.95 -3.34,1.91 -5,2.87 0.46,2 0.95,3.99 1.41,5.99 -1.77,-1.04 -3.51,-2.13 -5.25,-3.21 -3.48,2.78 -6.83,5.73 -10.15,8.71 1.93,2.22 3.89,4.4 5.93,6.52 4.38,-0.53 8.79,-0.54 13.2,-0.35 0.93,-3.88 -0.42,-9.72 3.83,-11.75 -0.3,4.04 -1.19,8 -1.69,12.02 24.33,2.05 47,12.08 68.49,23.06 4.25,2.42 9.34,1.16 13.98,1.23 -1.37,-1.34 -2.6,-2.91 -4.34,-3.79 -2.37,-1.03 -5.07,-0.83 -7.48,-1.69 -3.74,-3.07 -6.7,-6.97 -10,-10.48 -2.65,0.74 -5.29,1.48 -7.96,2.15 1.93,-1.53 3.91,-2.98 5.87,-4.46 -1.09,-1.14 -2.18,-2.27 -3.26,-3.41 -1.93,0.89 -3.85,1.79 -5.76,2.72 1.23,-1.97 2.44,-3.95 3.62,-5.94 C 96.3,64.25 94.09,64.55 92.13,63.72 85.02,59.76 79.56,53.57 74.54,47.3 71.58,46.7 68.51,46.82 65.57,46.05 68.35,45.34 71.2,44.93 74,44.28 c -2.76,-1.04 -5.65,-1.61 -8.52,-2.25 1.94,-0.37 3.9,-0.66 5.85,-0.95 -1.12,-2.51 -2.13,-5.07 -3.11,-7.64 -3.62,1.14 -7.23,2.32 -10.8,3.59 M 2.68,87.33 c 2.92,0.05 5.84,0.05 8.77,0.01 0.29,-3.56 0.85,-7.17 2.5,-10.39 2.56,-5.4 7.77,-8.85 13.15,-11.04 -1.49,-1.79 -3.02,-3.55 -4.53,-5.33 -7.6,8.12 -14.66,16.9 -19.89,26.75 z"
         id="path14"
         style="fill:#000000" />
    </g>
    <g
       id="#ffdc75ff">
      <path
         d="m 117.12,3.9 c 0.72,5.35 0.54,10.76 0.62,16.15 -0.07,2.87 0.06,5.84 -0.98,8.57 -1.34,0.75 -2.76,1.33 -4.14,1.98 1.41,0.33 2.82,0.68 4.23,1.06 -0.88,2.22 -2.65,3.71 -4.68,4.84 0.6,0.28 1.81,0.85 2.41,1.13 -0.56,1.21 -1.11,2.41 -1.66,3.62 -2.53,0.02 -5.09,0.02 -7.54,0.71 2.36,0.87 4.86,1.21 7.3,1.81 -2.23,0.98 -4.62,1.49 -6.95,2.17 0.94,0.38 2.81,1.15 3.74,1.54 -4.29,5.58 -9.38,10.5 -15.42,14.17 -6.52,-3.25 -11.91,-8.32 -16.34,-14.04 0.89,-0.62 1.8,-1.22 2.7,-1.84 -2,-0.57 -4.01,-1.13 -5.96,-1.84 2.13,-0.68 4.31,-1.21 6.4,-2.01 -2.24,-0.51 -4.54,-0.64 -6.83,-0.75 -0.85,-2.2 -2.43,-4.54 -1.27,-6.94 -1.21,-1.36 -2.3,-2.82 -3.28,-4.36 1.99,-0.25 3.98,-0.45 5.97,-0.67 -2.16,-1.14 -4.33,-2.25 -6.47,-3.42 -0.85,-7.22 -1.02,-14.56 0.15,-21.75 1.74,4.05 3.03,9.6 7.9,10.9 4.46,-0.62 8.88,-1.64 13.41,-1.8 1.29,2.84 2.55,5.69 3.86,8.53 0.93,-2.87 1.76,-5.77 2.61,-8.67 4.7,0.24 9.35,0.93 13.96,1.89 3.07,-3.02 4.93,-6.94 6.26,-10.98 M 78.36,25.5 c 2.64,-1.87 5.05,-4.34 8.44,-4.71 0.62,2.95 0.78,5.96 0.74,8.96 -2.34,0.12 -4.69,0.19 -7.03,0.26 0,0.49 0.01,1.48 0.01,1.97 2.03,0.02 4.05,0.03 6.07,0.05 -0.97,2.35 -1.93,4.72 -2.92,7.07 2.46,1.63 4.91,3.26 7.4,4.84 -1.43,1.47 -2.81,3 -4.02,4.66 2.27,-0.67 4.39,-1.72 6.46,-2.85 2.32,1.19 4.64,2.45 7.24,2.9 -1.5,-1.71 -3.23,-3.18 -4.96,-4.65 2.45,-1.66 4.92,-3.28 7.39,-4.9 -0.76,-2.26 -1.42,-4.56 -2.04,-6.86 2.46,-0.13 4.91,-0.21 7.36,-0.27 0.02,-0.48 0.05,-1.44 0.07,-1.92 -2.13,-0.14 -4.24,-0.31 -6.35,-0.53 2.45,-3.06 6.29,-4.07 9.67,-5.7 -5.16,-1.61 -9.91,1.62 -12.17,6.09 -3.46,0.01 -6.93,0.03 -10.39,0.11 0.46,-3.53 1.31,-8.12 -1.82,-10.68 -4.14,-1.78 -8.94,1.78 -9.15,6.16 z"
         id="path17"
         style="fill:#ffdc75" />
      <path
         d="m 88.66,32.13 c 3.53,-0.12 7.06,-0.12 10.59,-0.06 0.26,1.89 0.55,3.77 0.87,5.65 -4.48,-0.09 -8.97,-0.09 -13.45,-0.01 0.69,-1.86 1.35,-3.71 1.99,-5.58 z"
         id="path19"
         style="fill:#ffdc75" />
      <path
         d="m 89.39,40.04 c 2.72,-0.05 5.44,-0.05 8.16,-0.04 -1.3,0.99 -2.61,1.97 -3.9,2.96 -1.43,-0.97 -2.85,-1.94 -4.26,-2.92 z"
         id="path21"
         style="fill:#ffdc75" />
    </g>
    <g
       id="#72694dff">
      <path
         d="m 78.36,25.5 c 0.21,-4.38 5.01,-7.94 9.15,-6.16 3.13,2.56 2.28,7.15 1.82,10.68 3.46,-0.08 6.93,-0.1 10.39,-0.11 2.26,-4.47 7.01,-7.7 12.17,-6.09 -3.38,1.63 -7.22,2.64 -9.67,5.7 2.11,0.22 4.22,0.39 6.35,0.53 -0.02,0.48 -0.05,1.44 -0.07,1.92 -2.45,0.06 -4.9,0.14 -7.36,0.27 0.62,2.3 1.28,4.6 2.04,6.86 -2.47,1.62 -4.94,3.24 -7.39,4.9 1.73,1.47 3.46,2.94 4.96,4.65 -2.6,-0.45 -4.92,-1.71 -7.24,-2.9 -2.07,1.13 -4.19,2.18 -6.46,2.85 1.21,-1.66 2.59,-3.19 4.02,-4.66 -2.49,-1.58 -4.94,-3.21 -7.4,-4.84 0.99,-2.35 1.95,-4.72 2.92,-7.07 -2.02,-0.02 -4.04,-0.03 -6.07,-0.05 0,-0.49 -0.01,-1.48 -0.01,-1.97 2.34,-0.07 4.69,-0.14 7.03,-0.26 0.04,-3 -0.12,-6.01 -0.74,-8.96 -3.39,0.37 -5.8,2.84 -8.44,4.71 m 10.3,6.63 c -0.64,1.87 -1.3,3.72 -1.99,5.58 4.48,-0.08 8.97,-0.08 13.45,0.01 -0.32,-1.88 -0.61,-3.76 -0.87,-5.65 -3.53,-0.06 -7.06,-0.06 -10.59,0.06 m 0.73,7.91 c 1.41,0.98 2.83,1.95 4.26,2.92 1.29,-0.99 2.6,-1.97 3.9,-2.96 -2.72,-0.01 -5.44,-0.01 -8.16,0.04 z"
         id="path24"
         style="fill:#72694d" />
    </g>
    <g
       id="#d2a41cff">
      <path
         d="m 57.42,37.03 c 3.57,-1.27 7.18,-2.45 10.8,-3.59 0.98,2.57 1.99,5.13 3.11,7.64 -1.95,0.29 -3.91,0.58 -5.85,0.95 2.87,0.64 5.76,1.21 8.52,2.25 -2.8,0.65 -5.65,1.06 -8.43,1.77 2.94,0.77 6.01,0.65 8.97,1.25 5.02,6.27 10.48,12.46 17.59,16.42 1.96,0.83 4.17,0.53 6.24,0.9 -1.18,1.99 -2.39,3.97 -3.62,5.94 1.91,-0.93 3.83,-1.83 5.76,-2.72 1.08,1.14 2.17,2.27 3.26,3.41 -1.96,1.48 -3.94,2.93 -5.87,4.46 2.67,-0.67 5.31,-1.41 7.96,-2.15 3.3,3.51 6.26,7.41 10,10.48 2.41,0.86 5.11,0.66 7.48,1.69 1.74,0.88 2.97,2.45 4.34,3.79 -4.64,-0.07 -9.73,1.19 -13.98,-1.23 C 92.21,77.31 69.54,67.28 45.21,65.23 c 0.5,-4.02 1.39,-7.98 1.69,-12.02 -4.25,2.03 -2.9,7.87 -3.83,11.75 -4.41,-0.19 -8.82,-0.18 -13.2,0.35 -2.04,-2.12 -4,-4.3 -5.93,-6.52 3.32,-2.98 6.67,-5.93 10.15,-8.71 1.74,1.08 3.48,2.17 5.25,3.21 -0.46,-2 -0.95,-3.99 -1.41,-5.99 1.66,-0.96 3.33,-1.92 5,-2.87 2.47,1.34 4.98,2.62 7.55,3.75 -1.14,-2.08 -2.35,-4.14 -3.57,-6.18 1.06,-0.54 2.12,-1.09 3.18,-1.64 3.67,2.43 7.35,4.85 10.94,7.38 -1.24,-3.56 -2.44,-7.13 -3.61,-10.71 z"
         id="path27"
         style="fill:#d2a41c" />
      <path
         d="M 2.68,87.33 C 7.91,77.48 14.97,68.7 22.57,60.58 c 1.51,1.78 3.04,3.54 4.53,5.33 -5.38,2.19 -10.59,5.64 -13.15,11.04 -1.65,3.22 -2.21,6.83 -2.5,10.39 -2.93,0.04 -5.85,0.04 -8.77,-0.01 z"
         id="path29"
         style="fill:#d2a41c" />
    </g>
  </g>
  <g
     inkscape:groupmode="layer"
     id="layer2"
     inkscape:label="XRay">
    <rect
       style="fill:#000000;fill-opacity:0.75769234;fill-rule:evenodd;stroke:#000000;stroke-width:2.64853001000000000;stroke-linecap:butt;stroke-linejoin:round;stroke-miterlimit:4;stroke-opacity:1;stroke-dasharray:none"
       id="rect2848"
       width="96.997902"
       height="65.005341"
       x="5.15622"
       y="16.477085" />
  </g>
  <g
     inkscape:groupmode="layer"
     id="layer3"
     inkscape:label="Knochen"
     sodipodi:insensitive="true">
    <path
       style="fill:#ffffff;fill-opacity:1;stroke:none"
       d="m 12.27945,74.269224 c 1.510297,-2.286264 3.24107,-4.435173 4.995661,-6.559836 0.549332,-1.123631 1.654205,-1.855753 2.553095,-2.715045 0.896464,-0.440873 1.479077,-1.386996 2.514317,-1.580339 0.829895,-0.0793 1.323534,0.752553 1.421574,1.415232 0.150225,0.886355 -0.669919,1.632744 -1.552607,1.773615 -1.562437,1.169013 -3.064811,2.412699 -4.512132,3.70285 -1.002873,1.118947 -1.589973,2.564957 -2.862798,3.464895 -0.77517,0.09251 -1.403869,0.678462 -2.200207,0.675638 -0.138265,-0.0097 -0.272856,-0.07325 -0.356903,-0.17701 z"
       id="path3671" />
    <path
       style="fill:#ffffff;fill-opacity:1;stroke:none"
       d="m 26.784316,59.416755 c 1.837153,-2.032946 3.871601,-3.896923 5.925947,-5.733345 0.712169,-1.028167 1.914635,-1.585681 2.932601,-2.299915 0.952601,-0.300945 1.67096,-1.148618 2.723506,-1.183968 0.832378,0.04649 1.195211,0.943159 1.192409,1.613045 0.01513,0.898868 -0.907998,1.513336 -1.801833,1.519768 -1.720566,0.920573 -3.392991,1.924006 -5.017982,2.98166 -1.15984,0.955284 -1.957861,2.296475 -3.351621,2.99462 -0.780264,-0.0252 -1.489982,0.45947 -2.276826,0.336838 -0.135231,-0.0304 -0.258725,-0.113477 -0.326201,-0.228703 z"
       id="path3671-7" />
    <path
       style="fill:#ffffff;fill-opacity:1;stroke:none"
       d="m 28.828941,62.890765 c 2.636698,-0.745539 5.350705,-1.243087 8.066921,-1.70672 1.149726,-0.492383 2.464601,-0.3255 3.706494,-0.389431 0.966857,0.251404 2.025892,-0.0848 2.936241,0.444696 0.680356,0.481799 0.511104,1.434173 0.152678,2.000111 -0.464944,0.769428 -1.573477,0.79926 -2.33402,0.329624 -1.946702,-0.13473 -3.896667,-0.173686 -5.835273,-0.141502 -1.490188,0.192705 -2.879012,0.904603 -4.43067,0.755167 -0.647529,-0.436065 -1.506304,-0.402749 -2.10762,-0.924842 -0.09839,-0.09763 -0.158838,-0.233637 -0.154751,-0.367103 z"
       id="path3671-7-4"
       inkscape:transform-center-y="-1.9573602"
       inkscape:transform-center-x="-0.97962096" />
    <path
       style="fill:#ffffff;fill-opacity:1;stroke:none"
       d="m 46.310391,45.565452 c -0.143874,3.431637 0.306529,6.856109 0.798094,10.242516 0.758402,2.476819 2.801622,4.224306 4.068405,6.417746 1.395708,1.704112 3.417801,2.784393 5.510915,3.380516 1.078617,-0.459996 1.040017,-2.115582 0.06141,-2.665351 -1.21488,-1.147766 -2.782919,-2.007948 -3.534793,-3.56909 -1.805565,-2.736559 -3.112848,-5.829016 -3.712792,-9.053917 -0.118665,-1.958925 0.770396,-4.061423 -0.231828,-5.904133 -0.578745,-0.955781 -2.182143,-0.736027 -2.539443,0.304565 -0.173322,0.264245 -0.310975,0.550838 -0.419963,0.847148 z"
       id="path3748" />
    <path
       style="fill:#ffffff;fill-opacity:1;stroke:none"
       d="m 55.016412,40.795808 c -0.16619,4.44785 0.354072,8.886413 0.921879,13.275641 0.876031,3.210281 3.236158,5.475251 4.699421,8.318236 1.612184,2.208752 3.947905,3.608938 6.365667,4.38159 1.245912,-0.596215 1.201324,-2.742069 0.07093,-3.454642 -1.403311,-1.487656 -3.214553,-2.602563 -4.083045,-4.626008 -2.08561,-3.546938 -3.595655,-7.555166 -4.288651,-11.73506 -0.13707,-2.539022 0.889885,-5.264135 -0.267785,-7.652528 -0.66851,-1.238817 -2.520597,-0.953987 -2.933314,0.394757 -0.200205,0.342496 -0.359209,0.713958 -0.4851,1.098014 z"
       id="path3748-0" />
    <path
       style="fill:#ffffff;fill-opacity:1;stroke:none"
       d="m 64.450501,38.805482 c -0.156626,4.682361 0.333697,9.354945 0.868828,13.975592 0.825619,3.379542 3.049929,5.763931 4.428986,8.756811 1.519408,2.325208 3.720716,3.799218 5.999345,4.612608 1.174214,-0.627651 1.132191,-2.886644 0.06685,-3.636787 -1.322557,-1.566092 -3.029568,-2.739782 -3.848081,-4.869912 -1.965589,-3.733948 -3.388737,-7.953508 -4.041853,-12.353786 -0.129182,-2.67289 0.838676,-5.541683 -0.252375,-8.056003 -0.630039,-1.304133 -2.375545,-1.004285 -2.764511,0.415571 -0.188684,0.360554 -0.338538,0.751601 -0.457184,1.155906 z"
       id="path3748-0-9" />
    <path
       style="fill:#ffffff;fill-opacity:1;stroke:none"
       d="m 99.737772,76.553828 c -2.406901,-2.98063 -5.165167,-5.78219 -7.961391,-8.552139 -0.875449,-1.464891 -2.636242,-2.419369 -4.068769,-3.539636 -1.42866,-0.574772 -2.357148,-1.808246 -4.00697,-2.060309 -1.322571,-0.103389 -2.109265,0.981113 -2.265507,1.845056 -0.239408,1.155551 1.067624,2.128629 2.47433,2.312283 2.489994,1.524056 4.88427,3.145465 7.190809,4.82745 1.598241,1.458786 2.533879,3.343967 4.562331,4.517228 1.235359,0.120606 2.237292,0.884518 3.506385,0.880836 0.220348,-0.01266 0.434839,-0.09549 0.568782,-0.230769 z"
       id="path3671-4" />
    <path
       style="fill:#ffffff;fill-opacity:1;stroke:none"
       d="M 49.662618,24.334683 C 47.106855,22.873862 44.46138,21.14596 41.427886,21.09707 c -2.260504,-0.102891 -2.41344,3.025266 -0.202572,3.223319 1.951511,0.741163 4.021885,0.958899 6.089058,0.937104 0.727274,0.03299 2.347756,-0.07167 2.348246,-0.92281 z"
       id="path3827" />
    <path
       style="fill:#ffffff;fill-opacity:1;stroke:none"
       d="m 81.19838,24.45884 c 0.78683,-3.056735 7.577249,-4.338858 6.902386,-0.08865 0.342066,2.796962 0.606176,5.720453 -0.950145,8.276645 0.265767,1.687911 -3.028331,3.655475 -2.006107,0.873943 0.727206,-2.783669 2.684115,-5.720357 1.591006,-8.560733 -1.200266,-2.401678 -3.577228,-0.601885 -5.011337,0.164336 l -0.346859,-0.234415 -0.178944,-0.431124 0,0 z"
       id="path3837" />
    <path
       style="fill:#ffffff;fill-opacity:1;stroke:none"
       d="m 86.661272,38.116059 c 2.83604,2.161907 6.519718,-0.167661 9.637689,1.13409 2.192672,0.9226 4.739129,-1.908416 1.591028,-2.804579 -3.454752,-0.547639 -7.032038,0.479588 -10.49008,0.429836 -0.471523,0.212128 -0.747184,0.735272 -0.738637,1.240653 z"
       id="path3853" />
    <path
       style="fill:#ffffff;fill-opacity:1;stroke:none"
       d="m 89.392712,40.97166 c -0.0051,-0.155879 -1.027563,1.696457 0.215907,1.772002 1.393757,0.454721 1.607832,1.932334 0.37887,2.724508 -0.413192,0.657435 -2.333722,3.066516 -0.521592,2.639011 1.33564,-0.791355 2.570121,-1.82872 4.060309,-2.31899 1.790987,-0.114123 2.904938,1.788055 4.521035,2.267144 1.542354,-0.287708 -0.08013,-2.066583 -0.969164,-2.265758 -1.381359,-0.801895 -1.07059,-2.609627 0.546516,-2.846538 1.929051,-0.572447 -0.136482,-3.2166 -1.281019,-1.668665 -0.856009,0.756624 -1.602162,2.46449 -3.012918,1.738497 -1.008811,-0.759578 -1.937351,-1.636811 -2.961367,-2.385293 -0.360882,-0.120707 -0.739236,0.08053 -0.976577,0.344082 z"
       id="path3865" />
    <path
       style="fill:#ffffff;fill-opacity:1;stroke:none"
       d="m 93.365721,19.989204 c -0.121106,-0.09922 0.0067,-0.502583 0.09739,-0.235791 -0.0062,0.395455 0.08821,0.799253 0.323607,1.123342 0.176428,0.236022 0.245637,0.542208 0.187669,0.830394 0.02641,0.163029 0.189857,0.07022 0.16257,-0.05214 0.10875,-0.193259 0.235372,-0.390393 0.210394,-0.622828 0.0072,-0.257159 0.03245,-0.523721 0.166949,-0.749117 0.134837,-0.36274 0.172758,-0.755323 0.329618,-1.110687 0.178224,-0.09947 0.300554,-0.396911 0.110639,-0.542137 -0.210017,-0.111336 -0.44038,0.04883 -0.661224,0.01015 -0.377335,-0.02173 -0.73379,-0.166114 -1.109299,-0.199568 0.04829,0.221815 0.202743,0.415148 0.185386,0.652018 0.01716,0.298739 -0.02293,0.597755 -0.0037,0.896366 z"
       id="path3874" />
    <path
       style="fill:#ffffff;fill-opacity:1;stroke:none"
       d="m 90.261808,30.54251 c -0.130191,0.66818 -5.9e-4,1.577388 0.902531,1.240955 1.950042,0.0066 3.9001,-0.0064 5.850138,0.0027 0.70558,0.419746 1.530087,0.01587 1.200253,-0.840858 0.297174,-0.965928 -0.617827,-1.363931 -1.42578,-1.147801 -1.265229,0.0034 -2.53046,-0.0027 -3.79569,7.2e-5 -0.632008,0.143478 -1.264683,0.311883 -1.884731,0.431361 -0.296135,0.01017 -0.714571,-0.02176 -0.846721,0.313585 z"
       id="path3889" />
    <path
       style="fill:#ffffff;fill-opacity:1;stroke:none"
       d="m 69.403509,23.465587 c -0.178775,4.514397 3.024394,8.252974 3.358493,12.683594 1.050084,5.952037 5.599951,10.282864 8.758682,15.167069 2.847172,3.262415 6.080942,6.374793 10.034757,8.260005 1.650525,1.227242 3.412959,-0.302904 4.922955,-1.048868 1.230669,-0.649398 3.891854,-2.655549 1.83311,-3.89293 -1.688762,0.140905 -3.016647,2.260149 -4.861852,2.630666 -1.905591,0.730272 -3.218841,-1.0273 -4.416384,-2.171151 -3.629588,-3.267769 -6.509248,-7.238812 -9.707124,-10.904994 -2.339979,-4.598898 -5.356879,-9.09956 -5.856234,-14.368437 -1.104678,-2.445593 -0.763073,-5.473587 -2.491334,-7.636246 -1.290662,-1.193829 -1.987835,0.245212 -1.202594,1.405448"
       id="path3895" />
  </g>
</svg>
