<?xml version="1.0" encoding="UTF-8" standalone="no"?>
<svg
   xmlns:dc="http://purl.org/dc/elements/1.1/"
   xmlns:cc="http://creativecommons.org/ns#"
   xmlns:rdf="http://www.w3.org/1999/02/22-rdf-syntax-ns#"
   xmlns:svg="http://www.w3.org/2000/svg"
   xmlns="http://www.w3.org/2000/svg"
   xmlns:xlink="http://www.w3.org/1999/xlink"
   xmlns:sodipodi="http://sodipodi.sourceforge.net/DTD/sodipodi-0.dtd"
   xmlns:inkscape="http://www.inkscape.org/namespaces/inkscape"
   width="130pt"
   height="92pt"
   viewBox="0 0 130 92"
   version="1.1"
   id="svg2"
   inkscape:version="0.47 r22583"
   sodipodi:docname="monitor4catalina-logo-v2.svg"
   inkscape:export-filename="C:\Users\kleinsassermar\Downloads\monitor4catalina-logo-v2.png"
   inkscape:export-xdpi="59.470474"
   inkscape:export-ydpi="59.470474">
  <metadata
     id="metadata35">
    <rdf:RDF>
      <cc:Work
         rdf:about="">
        <dc:format>image/svg+xml</dc:format>
        <dc:type
           rdf:resource="http://purl.org/dc/dcmitype/StillImage" />
        <dc:title></dc:title>
      </cc:Work>
    </rdf:RDF>
  </metadata>
  <defs
     id="defs33">
    <linearGradient
       id="linearGradient3732">
      <stop
         id="stop3742"
         offset="0"
         style="stop-color:#ffffff;stop-opacity:0.75;" />
      <stop
         style="stop-color:#ffffff;stop-opacity:0.15555556;"
         offset="0.15010755"
         id="stop3744" />
      <stop
         style="stop-color:#000000;stop-opacity:0;"
         offset="1"
         id="stop3736" />
    </linearGradient>
    <inkscape:path-effect
       effect="bend_path"
       id="path-effect3702"
       is_visible="true"
       bendpath="m 14.40216,10.118758 78.094467,0"
       prop_scale="1"
       scale_y_rel="false"
       vertical="false" />
    <linearGradient
       id="linearGradient3693">
      <stop
         style="stop-color:#cccccd;stop-opacity:1;"
         offset="0"
         id="stop3695" />
      <stop
         style="stop-color:#cccccd;stop-opacity:0;"
         offset="1"
         id="stop3697" />
    </linearGradient>
    <linearGradient
       id="linearGradient3683">
      <stop
         style="stop-color:#ffffff;stop-opacity:1;"
         offset="0"
         id="stop3685" />
      <stop
         style="stop-color:#000000;stop-opacity:0;"
         offset="1"
         id="stop3687" />
    </linearGradient>
    <linearGradient
       inkscape:collect="always"
       id="linearGradient3671">
      <stop
         style="stop-color:#cccccd;stop-opacity:1;"
         offset="0"
         id="stop3673" />
      <stop
         style="stop-color:#cccccd;stop-opacity:0;"
         offset="1"
         id="stop3675" />
    </linearGradient>
    <linearGradient
       id="linearGradient3645">
      <stop
         style="stop-color:#a7aaab;stop-opacity:1;"
         offset="0"
         id="stop3647" />
      <stop
         id="stop3655"
         offset="0.5"
         style="stop-color:#7f7f7f;stop-opacity:0.49803922;" />
      <stop
         style="stop-color:#000000;stop-opacity:0;"
         offset="1"
         id="stop3649" />
    </linearGradient>
    <inkscape:perspective
       sodipodi:type="inkscape:persp3d"
       inkscape:vp_x="0 : 57.5 : 1"
       inkscape:vp_y="0 : 1000 : 0"
       inkscape:vp_z="162.5 : 57.5 : 1"
       inkscape:persp3d-origin="81.25 : 38.333333 : 1"
       id="perspective37" />
    <inkscape:perspective
       id="perspective3690"
       inkscape:persp3d-origin="0.5 : 0.33333333 : 1"
       inkscape:vp_z="1 : 0.5 : 1"
       inkscape:vp_y="0 : 1000 : 0"
       inkscape:vp_x="0 : 0.5 : 1"
       sodipodi:type="inkscape:persp3d" />
    <inkscape:perspective
       id="perspective3712"
       inkscape:persp3d-origin="0.5 : 0.33333333 : 1"
       inkscape:vp_z="1 : 0.5 : 1"
       inkscape:vp_y="0 : 1000 : 0"
       inkscape:vp_x="0 : 0.5 : 1"
       sodipodi:type="inkscape:persp3d" />
    <inkscape:perspective
       id="perspective3734"
       inkscape:persp3d-origin="0.5 : 0.33333333 : 1"
       inkscape:vp_z="1 : 0.5 : 1"
       inkscape:vp_y="0 : 1000 : 0"
       inkscape:vp_x="0 : 0.5 : 1"
       sodipodi:type="inkscape:persp3d" />
    <inkscape:perspective
       id="perspective3767"
       inkscape:persp3d-origin="0.5 : 0.33333333 : 1"
       inkscape:vp_z="1 : 0.5 : 1"
       inkscape:vp_y="0 : 1000 : 0"
       inkscape:vp_x="0 : 0.5 : 1"
       sodipodi:type="inkscape:persp3d" />
    <inkscape:perspective
       id="perspective3789"
       inkscape:persp3d-origin="0.5 : 0.33333333 : 1"
       inkscape:vp_z="1 : 0.5 : 1"
       inkscape:vp_y="0 : 1000 : 0"
       inkscape:vp_x="0 : 0.5 : 1"
       sodipodi:type="inkscape:persp3d" />
    <inkscape:perspective
       id="perspective3811"
       inkscape:persp3d-origin="0.5 : 0.33333333 : 1"
       inkscape:vp_z="1 : 0.5 : 1"
       inkscape:vp_y="0 : 1000 : 0"
       inkscape:vp_x="0 : 0.5 : 1"
       sodipodi:type="inkscape:persp3d" />
    <inkscape:perspective
       id="perspective2854"
       inkscape:persp3d-origin="0.5 : 0.33333333 : 1"
       inkscape:vp_z="1 : 0.5 : 1"
       inkscape:vp_y="0 : 1000 : 0"
       inkscape:vp_x="0 : 0.5 : 1"
       sodipodi:type="inkscape:persp3d" />
    <inkscape:perspective
       id="perspective2854-7"
       inkscape:persp3d-origin="0.5 : 0.33333333 : 1"
       inkscape:vp_z="1 : 0.5 : 1"
       inkscape:vp_y="0 : 1000 : 0"
       inkscape:vp_x="0 : 0.5 : 1"
       sodipodi:type="inkscape:persp3d" />
    <inkscape:perspective
       id="perspective2885"
       inkscape:persp3d-origin="0.5 : 0.33333333 : 1"
       inkscape:vp_z="1 : 0.5 : 1"
       inkscape:vp_y="0 : 1000 : 0"
       inkscape:vp_x="0 : 0.5 : 1"
       sodipodi:type="inkscape:persp3d" />
    <inkscape:perspective
       id="perspective2907"
       inkscape:persp3d-origin="0.5 : 0.33333333 : 1"
       inkscape:vp_z="1 : 0.5 : 1"
       inkscape:vp_y="0 : 1000 : 0"
       inkscape:vp_x="0 : 0.5 : 1"
       sodipodi:type="inkscape:persp3d" />
    <inkscape:perspective
       id="perspective2929"
       inkscape:persp3d-origin="0.5 : 0.33333333 : 1"
       inkscape:vp_z="1 : 0.5 : 1"
       inkscape:vp_y="0 : 1000 : 0"
       inkscape:vp_x="0 : 0.5 : 1"
       sodipodi:type="inkscape:persp3d" />
    <inkscape:perspective
       id="perspective2951"
       inkscape:persp3d-origin="0.5 : 0.33333333 : 1"
       inkscape:vp_z="1 : 0.5 : 1"
       inkscape:vp_y="0 : 1000 : 0"
       inkscape:vp_x="0 : 0.5 : 1"
       sodipodi:type="inkscape:persp3d" />
    <inkscape:perspective
       id="perspective2973"
       inkscape:persp3d-origin="0.5 : 0.33333333 : 1"
       inkscape:vp_z="1 : 0.5 : 1"
       inkscape:vp_y="0 : 1000 : 0"
       inkscape:vp_x="0 : 0.5 : 1"
       sodipodi:type="inkscape:persp3d" />
    <inkscape:perspective
       id="perspective2995"
       inkscape:persp3d-origin="0.5 : 0.33333333 : 1"
       inkscape:vp_z="1 : 0.5 : 1"
       inkscape:vp_y="0 : 1000 : 0"
       inkscape:vp_x="0 : 0.5 : 1"
       sodipodi:type="inkscape:persp3d" />
    <inkscape:perspective
       id="perspective3017"
       inkscape:persp3d-origin="0.5 : 0.33333333 : 1"
       inkscape:vp_z="1 : 0.5 : 1"
       inkscape:vp_y="0 : 1000 : 0"
       inkscape:vp_x="0 : 0.5 : 1"
       sodipodi:type="inkscape:persp3d" />
    <inkscape:perspective
       id="perspective3841"
       inkscape:persp3d-origin="0.5 : 0.33333333 : 1"
       inkscape:vp_z="1 : 0.5 : 1"
       inkscape:vp_y="0 : 1000 : 0"
       inkscape:vp_x="0 : 0.5 : 1"
       sodipodi:type="inkscape:persp3d" />
    <inkscape:perspective
       id="perspective3866"
       inkscape:persp3d-origin="0.5 : 0.33333333 : 1"
       inkscape:vp_z="1 : 0.5 : 1"
       inkscape:vp_y="0 : 1000 : 0"
       inkscape:vp_x="0 : 0.5 : 1"
       sodipodi:type="inkscape:persp3d" />
    <inkscape:perspective
       id="perspective3895"
       inkscape:persp3d-origin="0.5 : 0.33333333 : 1"
       inkscape:vp_z="1 : 0.5 : 1"
       inkscape:vp_y="0 : 1000 : 0"
       inkscape:vp_x="0 : 0.5 : 1"
       sodipodi:type="inkscape:persp3d" />
    <linearGradient
       inkscape:collect="always"
       xlink:href="#linearGradient3671"
       id="linearGradient3677"
       x1="70.303665"
       y1="24.942232"
       x2="70.303642"
       y2="43.717957"
       gradientUnits="userSpaceOnUse"
       gradientTransform="matrix(0.90144928,0,0,0.05879018,-9.9878543,7.7245205)" />
    <linearGradient
       inkscape:collect="always"
       xlink:href="#linearGradient3683"
       id="linearGradient3689"
       x1="53.767303"
       y1="3.0536292"
       x2="55.38134"
       y2="18.165453"
       gradientUnits="userSpaceOnUse" />
    <linearGradient
       inkscape:collect="always"
       xlink:href="#linearGradient3693"
       id="linearGradient3699"
       x1="53.946045"
       y1="12.274292"
       x2="53.946018"
       y2="24.429277"
       gradientUnits="userSpaceOnUse"
       gradientTransform="matrix(1,0,0,0.11538461,-0.49662618,7.6547282)" />
    <linearGradient
       inkscape:collect="always"
       xlink:href="#linearGradient3693"
       id="linearGradient3704"
       gradientUnits="userSpaceOnUse"
       gradientTransform="matrix(1,0,0,1.8692308,-0.12415655,-13.658175)"
       x1="53.946018"
       y1="-0.74426234"
       x2="53.946018"
       y2="24.429277" />
    <linearGradient
       inkscape:collect="always"
       xlink:href="#linearGradient3732"
       id="linearGradient3738"
       x1="57.734375"
       y1="-29.629892"
       x2="57.734375"
       y2="27.893223"
       gradientUnits="userSpaceOnUse"
       gradientTransform="matrix(-0.88291565,0,0,1.3405724,104.72039,46.529659)" />
    <inkscape:perspective
       id="perspective3757"
       inkscape:persp3d-origin="0.5 : 0.33333333 : 1"
       inkscape:vp_z="1 : 0.5 : 1"
       inkscape:vp_y="0 : 1000 : 0"
       inkscape:vp_x="0 : 0.5 : 1"
       sodipodi:type="inkscape:persp3d" />
  </defs>
  <sodipodi:namedview
     pagecolor="#ffffff"
     bordercolor="#666666"
     borderopacity="1"
     objecttolerance="10"
     gridtolerance="10"
     guidetolerance="10"
     inkscape:pageopacity="1"
     inkscape:pageshadow="2"
     inkscape:window-width="1680"
     inkscape:window-height="988"
     id="namedview31"
     showgrid="false"
     inkscape:zoom="7.5360812"
     inkscape:cx="83.593445"
     inkscape:cy="58.414235"
     inkscape:window-x="-8"
     inkscape:window-y="-8"
     inkscape:window-maximized="1"
     inkscape:current-layer="layer2" />
  <g
     inkscape:groupmode="layer"
     id="layer1"
     inkscape:label="Base"
     sodipodi:insensitive="true">
    <g
       id="#000000ff"
       transform="matrix(0.55956049,0,0,0.55956049,17.039838,12.402934)">
      <path
         d="m 68.2,0 1.08,0 c 5.05,2.67 9.83,6.22 12.35,11.51 7.71,-1.24 15.59,-1.3 23.33,-0.26 2.8,-5.12 7.57,-8.69 12.69,-11.25 l 0.7,0 c 3.13,13.44 2.99,28.03 -2.8,40.76 1.83,0.4 3.67,0.81 5.47,1.36 -2.78,0.77 -5.67,1.06 -8.37,2.1 2.45,0.65 4.96,0.92 7.47,1.2 -0.07,0.35 -0.2,1.06 -0.27,1.42 -2.49,0.03 -4.97,0.04 -7.45,0.04 -3.86,5.93 -8.75,11.14 -14.39,15.41 6.41,6.49 12.3,13.51 18.89,19.81 4.9,0.84 10.47,1.79 13.1,6.62 l 0,3.28 -14,0 C 93.78,80.63 70.52,69.77 45.32,67.55 c 0.54,3.43 1.69,6.73 3.53,9.69 2.38,0.02 4.9,-0.34 7.15,0.64 1.29,1.15 1.78,2.88 2.56,4.36 -3.78,0.16 -7.6,0.47 -11.37,0 C 40.51,78.26 34.73,72.95 28.96,67.77 23.92,69.58 18.97,72.52 16.4,77.39 14.08,81.04 14.03,85.46 13.88,89.63 9.25,89.57 4.63,89.59 0,89.6 L 0,87.54 C 5.36,76.89 12.85,67.44 20.91,58.71 15.88,51.74 11.47,43.2 13.26,34.35 c 1.37,-6.59 6.47,-12.54 13.22,-13.91 4.55,-1.4 9.53,0.93 13.76,-1.73 5.94,-0.7 11.22,3.73 15.09,7.82 -5.14,1.7 -10.92,2.42 -16.05,0.31 -1.81,-0.67 -2.12,-2.82 -3,-4.31 -3.71,-0.17 -7.59,-0.64 -11.11,0.81 -5.96,2.22 -9.94,8.46 -9.88,14.76 -0.25,6.92 3.43,13.1 7.13,18.66 C 35.17,44.8 50.77,35.73 67.69,31.2 65.28,20.98 64.76,10.06 68.2,0 m 48.92,3.9 c -1.33,4.04 -3.19,7.96 -6.26,10.98 -4.61,-0.96 -9.26,-1.65 -13.96,-1.89 -0.85,2.9 -1.68,5.8 -2.61,8.67 -1.31,-2.84 -2.57,-5.69 -3.86,-8.53 -4.53,0.16 -8.95,1.18 -13.41,1.8 -4.87,-1.3 -6.16,-6.85 -7.9,-10.9 -1.17,7.19 -1,14.53 -0.15,21.75 2.14,1.17 4.31,2.28 6.47,3.42 -1.99,0.22 -3.98,0.42 -5.97,0.67 0.98,1.54 2.07,3 3.28,4.36 -1.16,2.4 0.42,4.74 1.27,6.94 2.29,0.11 4.59,0.24 6.83,0.75 -2.09,0.8 -4.27,1.33 -6.4,2.01 1.95,0.71 3.96,1.27 5.96,1.84 -0.9,0.62 -1.81,1.22 -2.7,1.84 4.43,5.72 9.82,10.79 16.34,14.04 6.04,-3.67 11.13,-8.59 15.42,-14.17 -0.93,-0.39 -2.8,-1.16 -3.74,-1.54 2.33,-0.68 4.72,-1.19 6.95,-2.17 -2.44,-0.6 -4.94,-0.94 -7.3,-1.81 2.45,-0.69 5.01,-0.69 7.54,-0.71 0.55,-1.21 1.1,-2.41 1.66,-3.62 -0.6,-0.28 -1.81,-0.85 -2.41,-1.13 2.03,-1.13 3.8,-2.62 4.68,-4.84 -1.41,-0.38 -2.82,-0.73 -4.23,-1.06 1.38,-0.65 2.8,-1.23 4.14,-1.98 1.04,-2.73 0.91,-5.7 0.98,-8.57 -0.08,-5.39 0.1,-10.8 -0.62,-16.15 m -59.7,33.13 c 1.17,3.58 2.37,7.15 3.61,10.71 -3.59,-2.53 -7.27,-4.95 -10.94,-7.38 -1.06,0.55 -2.12,1.1 -3.18,1.64 1.22,2.04 2.43,4.1 3.57,6.18 -2.57,-1.13 -5.08,-2.41 -7.55,-3.75 -1.67,0.95 -3.34,1.91 -5,2.87 0.46,2 0.95,3.99 1.41,5.99 -1.77,-1.04 -3.51,-2.13 -5.25,-3.21 -3.48,2.78 -6.83,5.73 -10.15,8.71 1.93,2.22 3.89,4.4 5.93,6.52 4.38,-0.53 8.79,-0.54 13.2,-0.35 0.93,-3.88 -0.42,-9.72 3.83,-11.75 -0.3,4.04 -1.19,8 -1.69,12.02 24.33,2.05 47,12.08 68.49,23.06 4.25,2.42 9.34,1.16 13.98,1.23 -1.37,-1.34 -2.6,-2.91 -4.34,-3.79 -2.37,-1.03 -5.07,-0.83 -7.48,-1.69 -3.74,-3.07 -6.7,-6.97 -10,-10.48 -2.65,0.74 -5.29,1.48 -7.96,2.15 1.93,-1.53 3.91,-2.98 5.87,-4.46 -1.09,-1.14 -2.18,-2.27 -3.26,-3.41 -1.93,0.89 -3.85,1.79 -5.76,2.72 1.23,-1.97 2.44,-3.95 3.62,-5.94 C 96.3,64.25 94.09,64.55 92.13,63.72 85.02,59.76 79.56,53.57 74.54,47.3 71.58,46.7 68.51,46.82 65.57,46.05 68.35,45.34 71.2,44.93 74,44.28 c -2.76,-1.04 -5.65,-1.61 -8.52,-2.25 1.94,-0.37 3.9,-0.66 5.85,-0.95 -1.12,-2.51 -2.13,-5.07 -3.11,-7.64 -3.62,1.14 -7.23,2.32 -10.8,3.59 M 2.68,87.33 c 2.92,0.05 5.84,0.05 8.77,0.01 0.29,-3.56 0.85,-7.17 2.5,-10.39 2.56,-5.4 7.77,-8.85 13.15,-11.04 -1.49,-1.79 -3.02,-3.55 -4.53,-5.33 -7.6,8.12 -14.66,16.9 -19.89,26.75 z"
         id="path14"
         style="fill:#000000" />
    </g>
    <g
       id="#ffdc75ff"
       transform="matrix(0.55956049,0,0,0.55956049,17.039838,12.402934)">
      <path
         d="m 117.12,3.9 c 0.72,5.35 0.54,10.76 0.62,16.15 -0.07,2.87 0.06,5.84 -0.98,8.57 -1.34,0.75 -2.76,1.33 -4.14,1.98 1.41,0.33 2.82,0.68 4.23,1.06 -0.88,2.22 -2.65,3.71 -4.68,4.84 0.6,0.28 1.81,0.85 2.41,1.13 -0.56,1.21 -1.11,2.41 -1.66,3.62 -2.53,0.02 -5.09,0.02 -7.54,0.71 2.36,0.87 4.86,1.21 7.3,1.81 -2.23,0.98 -4.62,1.49 -6.95,2.17 0.94,0.38 2.81,1.15 3.74,1.54 -4.29,5.58 -9.38,10.5 -15.42,14.17 -6.52,-3.25 -11.91,-8.32 -16.34,-14.04 0.89,-0.62 1.8,-1.22 2.7,-1.84 -2,-0.57 -4.01,-1.13 -5.96,-1.84 2.13,-0.68 4.31,-1.21 6.4,-2.01 -2.24,-0.51 -4.54,-0.64 -6.83,-0.75 -0.85,-2.2 -2.43,-4.54 -1.27,-6.94 -1.21,-1.36 -2.3,-2.82 -3.28,-4.36 1.99,-0.25 3.98,-0.45 5.97,-0.67 -2.16,-1.14 -4.33,-2.25 -6.47,-3.42 -0.85,-7.22 -1.02,-14.56 0.15,-21.75 1.74,4.05 3.03,9.6 7.9,10.9 4.46,-0.62 8.88,-1.64 13.41,-1.8 1.29,2.84 2.55,5.69 3.86,8.53 0.93,-2.87 1.76,-5.77 2.61,-8.67 4.7,0.24 9.35,0.93 13.96,1.89 3.07,-3.02 4.93,-6.94 6.26,-10.98 M 78.36,25.5 c 2.64,-1.87 5.05,-4.34 8.44,-4.71 0.62,2.95 0.78,5.96 0.74,8.96 -2.34,0.12 -4.69,0.19 -7.03,0.26 0,0.49 0.01,1.48 0.01,1.97 2.03,0.02 4.05,0.03 6.07,0.05 -0.97,2.35 -1.93,4.72 -2.92,7.07 2.46,1.63 4.91,3.26 7.4,4.84 -1.43,1.47 -2.81,3 -4.02,4.66 2.27,-0.67 4.39,-1.72 6.46,-2.85 2.32,1.19 4.64,2.45 7.24,2.9 -1.5,-1.71 -3.23,-3.18 -4.96,-4.65 2.45,-1.66 4.92,-3.28 7.39,-4.9 -0.76,-2.26 -1.42,-4.56 -2.04,-6.86 2.46,-0.13 4.91,-0.21 7.36,-0.27 0.02,-0.48 0.05,-1.44 0.07,-1.92 -2.13,-0.14 -4.24,-0.31 -6.35,-0.53 2.45,-3.06 6.29,-4.07 9.67,-5.7 -5.16,-1.61 -9.91,1.62 -12.17,6.09 -3.46,0.01 -6.93,0.03 -10.39,0.11 0.46,-3.53 1.31,-8.12 -1.82,-10.68 -4.14,-1.78 -8.94,1.78 -9.15,6.16 z"
         id="path17"
         style="fill:#ffdc75" />
      <path
         d="m 88.66,32.13 c 3.53,-0.12 7.06,-0.12 10.59,-0.06 0.26,1.89 0.55,3.77 0.87,5.65 -4.48,-0.09 -8.97,-0.09 -13.45,-0.01 0.69,-1.86 1.35,-3.71 1.99,-5.58 z"
         id="path19"
         style="fill:#ffdc75" />
      <path
         d="m 89.39,40.04 c 2.72,-0.05 5.44,-0.05 8.16,-0.04 -1.3,0.99 -2.61,1.97 -3.9,2.96 -1.43,-0.97 -2.85,-1.94 -4.26,-2.92 z"
         id="path21"
         style="fill:#ffdc75" />
    </g>
    <g
       id="#72694dff"
       transform="matrix(0.55956049,0,0,0.55956049,17.039838,12.402934)">
      <path
         d="m 78.36,25.5 c 0.21,-4.38 5.01,-7.94 9.15,-6.16 3.13,2.56 2.28,7.15 1.82,10.68 3.46,-0.08 6.93,-0.1 10.39,-0.11 2.26,-4.47 7.01,-7.7 12.17,-6.09 -3.38,1.63 -7.22,2.64 -9.67,5.7 2.11,0.22 4.22,0.39 6.35,0.53 -0.02,0.48 -0.05,1.44 -0.07,1.92 -2.45,0.06 -4.9,0.14 -7.36,0.27 0.62,2.3 1.28,4.6 2.04,6.86 -2.47,1.62 -4.94,3.24 -7.39,4.9 1.73,1.47 3.46,2.94 4.96,4.65 -2.6,-0.45 -4.92,-1.71 -7.24,-2.9 -2.07,1.13 -4.19,2.18 -6.46,2.85 1.21,-1.66 2.59,-3.19 4.02,-4.66 -2.49,-1.58 -4.94,-3.21 -7.4,-4.84 0.99,-2.35 1.95,-4.72 2.92,-7.07 -2.02,-0.02 -4.04,-0.03 -6.07,-0.05 0,-0.49 -0.01,-1.48 -0.01,-1.97 2.34,-0.07 4.69,-0.14 7.03,-0.26 0.04,-3 -0.12,-6.01 -0.74,-8.96 -3.39,0.37 -5.8,2.84 -8.44,4.71 m 10.3,6.63 c -0.64,1.87 -1.3,3.72 -1.99,5.58 4.48,-0.08 8.97,-0.08 13.45,0.01 -0.32,-1.88 -0.61,-3.76 -0.87,-5.65 -3.53,-0.06 -7.06,-0.06 -10.59,0.06 m 0.73,7.91 c 1.41,0.98 2.83,1.95 4.26,2.92 1.29,-0.99 2.6,-1.97 3.9,-2.96 -2.72,-0.01 -5.44,-0.01 -8.16,0.04 z"
         id="path24"
         style="fill:#72694d" />
    </g>
    <g
       id="#d2a41cff"
       transform="matrix(0.55956049,0,0,0.55956049,17.039838,12.402934)">
      <path
         d="m 57.42,37.03 c 3.57,-1.27 7.18,-2.45 10.8,-3.59 0.98,2.57 1.99,5.13 3.11,7.64 -1.95,0.29 -3.91,0.58 -5.85,0.95 2.87,0.64 5.76,1.21 8.52,2.25 -2.8,0.65 -5.65,1.06 -8.43,1.77 2.94,0.77 6.01,0.65 8.97,1.25 5.02,6.27 10.48,12.46 17.59,16.42 1.96,0.83 4.17,0.53 6.24,0.9 -1.18,1.99 -2.39,3.97 -3.62,5.94 1.91,-0.93 3.83,-1.83 5.76,-2.72 1.08,1.14 2.17,2.27 3.26,3.41 -1.96,1.48 -3.94,2.93 -5.87,4.46 2.67,-0.67 5.31,-1.41 7.96,-2.15 3.3,3.51 6.26,7.41 10,10.48 2.41,0.86 5.11,0.66 7.48,1.69 1.74,0.88 2.97,2.45 4.34,3.79 -4.64,-0.07 -9.73,1.19 -13.98,-1.23 C 92.21,77.31 69.54,67.28 45.21,65.23 c 0.5,-4.02 1.39,-7.98 1.69,-12.02 -4.25,2.03 -2.9,7.87 -3.83,11.75 -4.41,-0.19 -8.82,-0.18 -13.2,0.35 -2.04,-2.12 -4,-4.3 -5.93,-6.52 3.32,-2.98 6.67,-5.93 10.15,-8.71 1.74,1.08 3.48,2.17 5.25,3.21 -0.46,-2 -0.95,-3.99 -1.41,-5.99 1.66,-0.96 3.33,-1.92 5,-2.87 2.47,1.34 4.98,2.62 7.55,3.75 -1.14,-2.08 -2.35,-4.14 -3.57,-6.18 1.06,-0.54 2.12,-1.09 3.18,-1.64 3.67,2.43 7.35,4.85 10.94,7.38 -1.24,-3.56 -2.44,-7.13 -3.61,-10.71 z"
         id="path27"
         style="fill:#d2a41c" />
      <path
         d="M 2.68,87.33 C 7.91,77.48 14.97,68.7 22.57,60.58 c 1.51,1.78 3.04,3.54 4.53,5.33 -5.38,2.19 -10.59,5.64 -13.15,11.04 -1.65,3.22 -2.21,6.83 -2.5,10.39 -2.93,0.04 -5.85,0.04 -8.77,-0.01 z"
         id="path29"
         style="fill:#d2a41c" />
    </g>
  </g>
  <g
     inkscape:groupmode="layer"
     id="layer2"
     inkscape:label="XRay">
    <rect
       style="fill:#000000;fill-opacity:0.75769234;fill-rule:evenodd;stroke:#000000;stroke-width:2.2236104;stroke-linecap:butt;stroke-linejoin:round;stroke-miterlimit:4;stroke-opacity:1;stroke-dasharray:none"
       id="rect2848"
       width="78.892273"
       height="56.335804"
       x="14.321166"
       y="10.252706" />
    <rect
       style="fill:#000000;fill-opacity:1;stroke:none"
       id="rect2863"
       width="18.499325"
       height="7.0769234"
       x="44.517639"
       y="66.079353" />
    <path
       style="fill:#000000;fill-opacity:1;stroke:none"
       d="M 23.59375 91.25 L 23.59375 91.28125 C 22.800917 91.428601 22.1875 92.133218 22.1875 92.96875 C 22.1875 93.804282 22.800917 94.477649 23.59375 94.625 L 23.59375 94.65625 L 23.90625 94.65625 L 110.53125 94.65625 L 110.8125 94.65625 L 110.8125 94.625 C 111.62031 94.489956 112.21875 93.814907 112.21875 92.96875 C 112.21875 92.122593 111.62031 91.416294 110.8125 91.28125 L 110.8125 91.25 L 110.53125 91.25 L 23.90625 91.25 L 23.59375 91.25 z "
       transform="scale(0.8,0.8)"
       id="rect3638" />
  </g>
  <g
     inkscape:groupmode="layer"
     id="layer3"
     inkscape:label="Knochen"
     sodipodi:insensitive="true">
    <path
       style="fill:#ffffff;fill-opacity:1;stroke:none"
       d="m 23.910933,53.961058 c 0.845102,-1.279303 1.813575,-2.481748 2.795374,-3.670625 0.307384,-0.628739 0.925628,-1.038406 1.428611,-1.519232 0.501626,-0.246694 0.827633,-0.776108 1.406913,-0.884295 0.464376,-0.04438 0.740597,0.421099 0.795456,0.791908 0.08406,0.495969 -0.37486,0.913619 -0.868777,0.992444 -0.874278,0.654134 -1.714948,1.350052 -2.524811,2.071969 -0.561168,0.626119 -0.889686,1.435249 -1.601909,1.938819 -0.433754,0.05177 -0.785549,0.37964 -1.231149,0.37806 -0.07736,-0.0054 -0.152679,-0.04099 -0.199708,-0.09905 z"
       id="path3671" />
    <path
       style="fill:#ffffff;fill-opacity:1;stroke:none"
       d="m 32.027282,45.650203 c 1.027999,-1.137556 2.166395,-2.180564 3.315927,-3.208153 0.398501,-0.575322 1.071354,-0.887285 1.640967,-1.286941 0.533038,-0.168398 0.935003,-0.642722 1.523966,-0.662502 0.465766,0.02601 0.668793,0.527754 0.667226,0.902596 0.0085,0.502971 -0.50808,0.846803 -1.008236,0.850402 -0.96276,0.515117 -1.898583,1.076598 -2.807864,1.668419 -0.649001,0.53454 -1.095541,1.285017 -1.875434,1.675671 -0.436606,-0.0141 -0.833735,0.257102 -1.274022,0.188481 -0.07567,-0.01701 -0.144772,-0.0635 -0.18253,-0.127973 z"
       id="path3671-7" />
    <path
       style="fill:#ffffff;fill-opacity:1;stroke:none"
       d="m 33.171374,47.594122 c 1.475392,-0.417174 2.994043,-0.695582 4.51393,-0.955013 0.643341,-0.275518 1.379094,-0.182137 2.074007,-0.21791 0.541016,0.140676 1.13361,-0.04745 1.643005,0.248834 0.380701,0.269596 0.285994,0.802507 0.08543,1.119183 -0.260164,0.430542 -0.880455,0.447235 -1.306025,0.184445 -1.089298,-0.07539 -2.180421,-0.09719 -3.265188,-0.07918 -0.833851,0.10783 -1.610982,0.50618 -2.479229,0.422562 -0.362332,-0.244005 -0.842867,-0.225362 -1.179341,-0.517505 -0.05506,-0.05463 -0.08888,-0.130734 -0.08659,-0.205416 z"
       id="path3671-7-4"
       inkscape:transform-center-y="-1.0952617"
       inkscape:transform-center-x="-0.54815626" />
    <path
       style="fill:#ffffff;fill-opacity:1;stroke:none"
       d="m 42.953303,37.899562 c -0.08051,1.920208 0.171521,3.836408 0.446581,5.731307 0.424372,1.38593 1.567678,2.363754 2.276519,3.591117 0.780984,0.953554 1.912466,1.558036 3.08369,1.891603 0.603552,-0.257396 0.581953,-1.183796 0.03437,-1.491425 -0.679799,-0.642244 -1.557211,-1.123568 -1.97793,-1.997122 -1.010323,-1.53127 -1.741827,-3.261687 -2.077532,-5.066214 -0.0664,-1.096137 0.431084,-2.272612 -0.129722,-3.303719 -0.323842,-0.534818 -1.221041,-0.411852 -1.420972,0.170422 -0.09698,0.147861 -0.174009,0.308227 -0.234994,0.474031 z"
       id="path3748" />
    <path
       style="fill:#ffffff;fill-opacity:1;stroke:none"
       d="m 47.824848,35.230657 c -0.09299,2.488841 0.198125,4.972486 0.515847,7.428525 0.490192,1.796345 1.810826,3.063734 2.62961,4.654556 0.902115,1.23593 2.209092,2.019418 3.561976,2.451764 0.697163,-0.333618 0.672214,-1.534353 0.03969,-1.933081 -0.785238,-0.832433 -1.798737,-1.456291 -2.284711,-2.588531 -1.167025,-1.984727 -2.011986,-4.227572 -2.399759,-6.566476 -0.0767,-1.420737 0.497944,-2.945602 -0.149843,-4.282052 -0.374071,-0.693194 -1.410426,-0.533814 -1.641366,0.22089 -0.112027,0.191647 -0.200999,0.399503 -0.271443,0.614405 z"
       id="path3748-0" />
    <path
       style="fill:#ffffff;fill-opacity:1;stroke:none"
       d="m 53.103791,34.11695 c -0.08764,2.620064 0.186724,5.234657 0.486163,7.820188 0.461983,1.891058 1.706619,3.225268 2.478285,4.899966 0.8502,1.301094 2.081966,2.125892 3.356996,2.581033 0.657044,-0.351209 0.633529,-1.615252 0.0374,-2.035002 -0.74005,-0.876323 -1.695226,-1.533074 -2.153234,-2.725011 -1.099866,-2.089369 -1.896203,-4.450468 -2.261661,-6.91269 -0.07229,-1.495644 0.46929,-3.100907 -0.141219,-4.507821 -0.352545,-0.729741 -1.329261,-0.561958 -1.546911,0.232537 -0.10558,0.201751 -0.189432,0.420566 -0.255822,0.6468 z"
       id="path3748-0-9" />
    <path
       style="fill:#ffffff;fill-opacity:1;stroke:none"
       d="m 72.252373,55.239433 c -1.346807,-1.667844 -2.890223,-3.235486 -4.45488,-4.78544 -0.489867,-0.819695 -1.475137,-1.353783 -2.276722,-1.98064 -0.799422,-0.32162 -1.318967,-1.011823 -2.242142,-1.152868 -0.740059,-0.05785 -1.180261,0.548992 -1.267688,1.032421 -0.133963,0.6466 0.5974,1.191097 1.384537,1.293862 1.393302,0.852802 2.733044,1.760078 4.023693,2.70125 0.894312,0.816279 1.417858,1.871152 2.552899,2.527662 0.691259,0.06748 1.251901,0.494942 1.962035,0.492881 0.123298,-0.0071 0.243319,-0.05343 0.318268,-0.129128 z"
       id="path3671-4" />
    <path
       style="fill:#ffffff;fill-opacity:1;stroke:none"
       d="m 44.829077,26.019662 c -1.430105,-0.817418 -2.910408,-1.784283 -4.607831,-1.81164 -1.264889,-0.05757 -1.350466,1.692819 -0.113352,1.803642 1.091989,0.414725 2.250488,0.536561 3.407197,0.524366 0.406953,0.01846 1.313711,-0.04011 1.313986,-0.516368 z"
       id="path3827" />
    <path
       style="fill:#ffffff;fill-opacity:1;stroke:none"
       d="m 82.440951,26.396901 c -1.253923,0.161201 -0.952131,1.878211 -1.396647,2.781809 -1.000468,3.867588 -2.635467,7.691045 -5.532385,10.527131 -1.841495,1.841587 -3.873229,3.556449 -6.196212,4.756131 -3.090156,-1.720188 -5.8318,-4.103479 -7.962778,-6.927098 -2.295284,-3.105365 -3.259763,-6.899607 -4.244488,-10.566963 -0.456227,-1.076665 -1.475981,-0.0968 -1.027457,0.767284 0.256147,2.292061 1.200291,4.436998 1.991341,6.583633 0.629333,1.578234 1.234708,3.201759 2.39708,4.479293 2.344311,2.805709 5.196085,5.173631 8.26788,7.142661 0.69897,0.506697 0.986509,-0.01221 1.872333,-0.454615 3.171719,-2.181328 6.21253,-4.687782 8.474425,-7.833285 0.961537,-1.501145 1.492752,-3.234377 2.161989,-4.878868 0.669902,-1.960486 1.543107,-3.949954 1.448726,-6.061615 -0.0187,-0.135625 -0.0988,-0.29814 -0.253807,-0.315498 z"
       id="path3895" />
    <path
       style="fill:#ffffff;fill-opacity:1;stroke:none"
       d="m 80.853217,60.110738 c -1.116085,-1.051271 -2.334614,-1.999427 -3.563001,-2.931319 -0.443444,-0.541438 -1.13919,-0.798324 -1.739077,-1.150915 -0.544846,-0.125019 -0.983626,-0.565509 -1.572275,-0.537897 -0.462169,0.06335 -0.624221,0.57979 -0.592537,0.953294 0.03198,0.502024 0.574484,0.803235 1.07331,0.766632 1.001041,0.436085 1.978957,0.92055 2.932855,1.43739 0.689856,0.480659 1.195259,1.192827 2.004022,1.519547 0.43406,-0.04914 0.851699,0.189273 1.285047,0.0855 0.07407,-0.02299 0.139203,-0.07492 0.171656,-0.142227 z"
       id="path3671-1" />
    <path
       style="fill:#ffffff;fill-opacity:1;stroke:none"
       d="m 86.711583,61.787476 c -0.859579,-0.35303 -1.754782,-0.625488 -2.652034,-0.886611 -0.36836,-0.210299 -0.817823,-0.204856 -1.233778,-0.274363 -0.335466,0.04736 -0.679298,-0.10682 -1.006473,0.03642 -0.247834,0.136049 -0.227597,0.463471 -0.128692,0.667994 0.126932,0.277199 0.499276,0.330064 0.773666,0.201203 0.661094,0.02979 1.319593,0.09199 1.97152,0.177701 0.494636,0.122484 0.935072,0.415983 1.463642,0.425562 0.235005,-0.121911 0.523075,-0.07752 0.745832,-0.230198 0.03699,-0.02911 0.06254,-0.07259 0.0663,-0.11771 z"
       id="path3671-40" />
    <path
       style="fill:#ffffff;fill-opacity:1;stroke:none"
       d="m 20.793599,60.633807 c 0.291027,-1.091403 0.686219,-2.157981 1.093893,-3.2182 0.06761,-0.511132 0.403644,-0.941963 0.642505,-1.395535 0.292694,-0.2897 0.39656,-0.735804 0.775907,-0.946917 0.314012,-0.13965 0.615878,0.12088 0.740961,0.367076 0.174764,0.326796 -0.0481,0.725926 -0.374683,0.896555 -0.457683,0.661511 -0.882112,1.344348 -1.278938,2.03814 -0.245511,0.568681 -0.285683,1.210772 -0.66539,1.729187 -0.290891,0.137649 -0.459925,0.449002 -0.771572,0.552157 -0.0553,0.01434 -0.116246,0.0071 -0.162682,-0.02246 z"
       id="path3671-9"
       inkscape:transform-center-x="-0.69750056" />
    <path
       style="fill:#ffffff;fill-opacity:1;stroke:none"
       d="m 42.859267,55.433126 c -0.822164,-1.15262 -1.755635,-2.230236 -2.700955,-3.294891 -0.304444,-0.570046 -0.88851,-0.927654 -1.368565,-1.354739 -0.471064,-0.21107 -0.789408,-0.688843 -1.327553,-0.769529 -0.429999,-0.0256 -0.669512,0.413079 -0.707878,0.757081 -0.06117,0.460465 0.37613,0.830706 0.834528,0.88712 0.828421,0.57474 1.627209,1.189151 2.398428,1.828573 0.538551,0.559239 0.868461,1.295055 1.542357,1.736211 0.401986,0.03343 0.737466,0.324368 1.148618,0.308178 0.07122,-0.0075 0.13954,-0.04287 0.18102,-0.098 z"
       id="path3671-1-4" />
    <path
       style="fill:#ffffff;fill-opacity:1;stroke:none"
       d="m 48.430617,57.191419 c -0.823452,-0.32998 -1.70996,-0.58945 -2.60214,-0.838932 -0.33494,-0.193597 -0.823259,-0.198088 -1.252525,-0.268164 -0.37763,0.03494 -0.703069,-0.108522 -1.100849,0.01137 -0.309696,0.115177 -0.38727,0.405136 -0.342325,0.588045 0.05321,0.247754 0.440305,0.302212 0.776558,0.193943 0.706766,0.04003 1.400874,0.108656 2.080712,0.197953 0.498364,0.118552 0.88607,0.387212 1.455476,0.406626 0.29151,-0.102943 0.58992,-0.05772 0.877518,-0.188129 0.04882,-0.02495 0.08977,-0.06289 0.107575,-0.102717 z"
       id="path3671-1-4-8"
       inkscape:transform-center-y="-0.89707182" />
    <path
       style="fill:#ffffff;fill-opacity:1;stroke:none"
       d="m 56.999123,15.006187 c 0.692875,1.494421 1.340163,3.139761 2.708385,4.144731 0.998046,0.779206 2.081151,-0.5985 1.13658,-1.405047 -0.650304,-0.97033 -1.524398,-1.740347 -2.474624,-2.400038 -0.321137,-0.250645 -1.094402,-0.727825 -1.370341,-0.339646 z"
       id="path3827-8"
       inkscape:transform-center-x="-0.89602677"
       inkscape:transform-center-y="0.89602656" />
    <path
       style="fill:#ffffff;fill-opacity:1;stroke:none"
       d="m 81.236938,14.521488 c -1.352014,0.940971 -2.860559,1.863153 -3.613664,3.384609 -0.594788,1.117803 0.949527,1.946224 1.580495,0.87636 0.843192,-0.808372 1.450374,-1.802502 1.935723,-2.85253 0.191306,-0.359659 0.527511,-1.203818 0.09745,-1.408439 z"
       id="path3827-8-2"
       inkscape:transform-center-x="0.64530239"
       inkscape:transform-center-y="0.75592812" />
    <g
       id="#72694dff-7"
       transform="matrix(0.55956049,0,0,0.55956049,17.058477,12.373246)"
       style="fill:#ffffff;fill-opacity:1">
      <path
         d="m 78.36,25.5 c 0.21,-4.38 5.01,-7.94 9.15,-6.16 3.13,2.56 2.28,7.15 1.82,10.68 3.46,-0.08 6.93,-0.1 10.39,-0.11 2.26,-4.47 7.01,-7.7 12.17,-6.09 -3.38,1.63 -7.22,2.64 -9.67,5.7 2.11,0.22 4.22,0.39 6.35,0.53 -0.02,0.48 -0.05,1.44 -0.07,1.92 -2.45,0.06 -4.9,0.14 -7.36,0.27 0.62,2.3 1.28,4.6 2.04,6.86 -2.47,1.62 -4.94,3.24 -7.39,4.9 1.73,1.47 3.46,2.94 4.96,4.65 -2.6,-0.45 -4.92,-1.71 -7.24,-2.9 -2.07,1.13 -4.19,2.18 -6.46,2.85 1.21,-1.66 2.59,-3.19 4.02,-4.66 -2.49,-1.58 -4.94,-3.21 -7.4,-4.84 0.99,-2.35 1.95,-4.72 2.92,-7.07 -2.02,-0.02 -4.04,-0.03 -6.07,-0.05 0,-0.49 -0.01,-1.48 -0.01,-1.97 2.34,-0.07 4.69,-0.14 7.03,-0.26 0.04,-3 -0.12,-6.01 -0.74,-8.96 -3.39,0.37 -5.8,2.84 -8.44,4.71 m 10.3,6.63 c -0.64,1.87 -1.3,3.72 -1.99,5.58 4.48,-0.08 8.97,-0.08 13.45,0.01 -0.32,-1.88 -0.61,-3.76 -0.87,-5.65 -3.53,-0.06 -7.06,-0.06 -10.59,0.06 m 0.73,7.91 c 1.41,0.98 2.83,1.95 4.26,2.92 1.29,-0.99 2.6,-1.97 3.9,-2.96 -2.72,-0.01 -5.44,-0.01 -8.16,0.04 z"
         id="path24-1"
         style="fill:#ffffff;fill-opacity:1" />
    </g>
    <path
       style="fill:#ffffff;fill-opacity:1;stroke:none"
       d="m 68.090636,19.894957 2.795423,-0.03585 -1.146915,3.726235 -1.648508,-3.690394 z"
       id="rect3911"
       sodipodi:nodetypes="cccc" />
  </g>
  <g
     inkscape:groupmode="layer"
     id="layer4"
     inkscape:label="Effekt"
     sodipodi:insensitive="true">
    <path
       style="font-size:medium;font-style:normal;font-variant:normal;font-weight:normal;font-stretch:normal;text-indent:0;text-align:start;text-decoration:none;line-height:normal;letter-spacing:normal;word-spacing:normal;text-transform:none;direction:ltr;block-progression:tb;writing-mode:lr-tb;text-anchor:start;color:#000000;fill:url(#linearGradient3738);fill-opacity:1;stroke:none;stroke-width:0.80000001px;marker:none;visibility:visible;display:inline;overflow:visible;enable-background:accumulate;font-family:Bitstream Vera Sans;-inkscape-font-specification:Bitstream Vera Sans"
       d="m 92.082919,11.461455 0.16629,25.223375 c 0,0 -20.432924,14.084995 -37.468733,-0.335143 C 38.139003,22.263341 15.51832,36.056436 15.51832,36.056436 l -0.275911,-24.599503 76.84051,0.0045 z"
       id="path3720"
       sodipodi:nodetypes="ccsccc" />
  </g>
</svg>
